<?xml version="1.0" standalone="no"?><!DOCTYPE svg PUBLIC "-//W3C//DTD SVG 1.1//EN" "http://www.w3.org/Graphics/SVG/1.1/DTD/svg11.dtd"><svg t="1655618076793" class="icon" viewBox="0 0 1024 1024" version="1.1" xmlns="http://www.w3.org/2000/svg" p-id="23005" xmlns:xlink="http://www.w3.org/1999/xlink" width="200" height="200"><defs><style type="text/css">@font-face { font-family: feedback-iconfont; src: url("//at.alicdn.com/t/font_1031158_u69w8yhxdu.woff2?t=1630033759944") format("woff2"), url("//at.alicdn.com/t/font_1031158_u69w8yhxdu.woff?t=1630033759944") format("woff"), url("//at.alicdn.com/t/font_1031158_u69w8yhxdu.ttf?t=1630033759944") format("truetype"); }
</style></defs><path d="M514.2528 918.6816c-46.6944 0-91.4944-19.5072-123.2896-53.9136l-297.0112-321.0752c-59.392-64.256-59.136-164.6592 0.6144-228.608l153.0368-163.84a168.37632 168.37632 0 0 1 122.7264-53.2992h281.0368c47.7696 0 93.44 20.4288 125.2864 56.1152l142.0288 159.1296c55.7056 62.4128 56.6784 157.44 2.2528 221.0304l-279.04 325.8368a168.0896 168.0896 0 0 1-124.3136 58.6752c-1.1776-0.0512-2.2528-0.0512-3.328-0.0512zM370.2784 169.6256c-26.5728 0-52.1728 11.1104-70.2976 30.5664l-153.0368 163.84c-34.2528 36.6592-34.3552 94.208-0.3072 131.0208l297.0112 321.0752a96.0512 96.0512 0 0 0 72.4992 30.8736c27.4432-0.512 53.4016-12.8 71.2192-33.5872l279.04-325.8368c31.1808-36.4032 30.6176-90.88-1.28-126.6688l-142.0288-159.1296a96.30208 96.30208 0 0 0-71.7824-32.1536H370.2784z" fill="#434A54" p-id="23006"></path><path d="M517.2224 717.8752c-17.9712 0-35.2256-7.5264-47.4624-20.736l-156.3648-169.0624a35.79392 35.79392 0 0 1 1.9968-50.6368 35.79392 35.79392 0 0 1 50.6368 1.9968l150.9888 163.2256 134.6048-157.184c12.8512-15.0528 35.4816-16.7936 50.5344-3.8912 15.0528 12.8512 16.7936 35.4816 3.8912 50.5344l-139.776 163.1744a64.7936 64.7936 0 0 1-47.872 22.5792h-1.1776z" fill="#FF9797" p-id="23007"></path></svg>