<?xml version="1.0" standalone="no"?><!DOCTYPE svg PUBLIC "-//W3C//DTD SVG 1.1//EN" "http://www.w3.org/Graphics/SVG/1.1/DTD/svg11.dtd"><svg t="1662108883010" class="icon" viewBox="0 0 1024 1024" version="1.1" xmlns="http://www.w3.org/2000/svg" p-id="3621" data-darkreader-inline-fill="" xmlns:xlink="http://www.w3.org/1999/xlink" width="200" height="200"><path d="M1015.506824 498.145882c-11.565176-61.921882-37.165176-117.338353-83.034353-161.852235-23.341176-22.648471-26.804706-22.287059-43.369412 5.963294-32.376471 55.235765-78.908235 91.346824-141.643294 104.628706a396.438588 396.438588 0 0 1-156.55153 2.017882c-27.497412-5.180235-54.543059-12.709647-83.937882-19.666823 95.201882-76.980706 129.054118-169.712941 87.250823-283.286588C562.447059 59.693176 475.557647-0.572235 383.518118 0.903529 261.240471 2.710588 186.127059 68.336941 150.558118 184.410353c-5.511529-0.783059-11.233882-1.686588-16.986353-2.409412-28.611765-3.614118-57.163294-9.637647-85.805177-9.999059C16.685176 171.580235-0.843294 191.216941 0.421647 220.551529c0.512 11.444706 3.614118 23.371294 8.071529 34.032942 12.830118 30.659765 35.508706 54.151529 62.945883 71.258353 42.134588 26.202353 86.106353 49.483294 128.903529 73.788235-42.014118 19.576471-79.902118 49.332706-111.435294 87.67247-78.125176 95.021176-93.063529 229.345882-35.147294 337.709177 48.368941 90.503529 127.849412 140.950588 224.798118 165.345882 62.192941 15.661176 126.343529 17.076706 190.102588 16.233412 108.965647-1.475765 215.702588-16.112941 316.416-61.259294 184.350118-82.642824 264.884706-262.746353 230.4-447.216941z m-611.990589 417.400471a24.395294 24.395294 0 0 1-28.400941 19.516235c-51.892706-9.607529-96.798118-27.045647-133.511529-51.802353a251.482353 251.482353 0 0 1-72.884706-74.480941 236.513882 236.513882 0 0 1-29.424941-68.668235 24.395294 24.395294 0 1 1 47.284706-11.776 188.235294 188.235294 0 0 0 24.69647 56.500706c34.394353 53.007059 92.491294 87.431529 172.724706 102.279529a24.395294 24.395294 0 0 1 19.516235 28.431059zM360.598588 249.524706c-29.424941 0-52.374588-23.009882-52.404706-52.585412a51.922824 51.922824 0 0 1 52.344471-52.705882 51.983059 51.983059 0 0 1 52.404706 52.645647c0.030118 29.515294-22.949647 52.645647-52.344471 52.645647z" p-id="3622"></path></svg>